<svg xmlns="http://www.w3.org/2000/svg" xmlns:xlink="http://www.w3.org/1999/xlink" preserveAspectRatio="xMidYMid" width="750" height="750" viewBox="0 0 750 750">
  <defs>
    <style>
      .cls-1, .cls-2 {
        fill: #f5f5f5;
      }

      .cls-1 {
        fill-rule: evenodd;
      }
    </style>
  </defs>
  <g>
    <path d="M375.500,671.000 C212.300,671.000 80.000,538.700 80.000,375.500 C80.000,212.300 212.300,80.000 375.500,80.000 C538.700,80.000 671.000,212.300 671.000,375.500 C671.000,538.700 538.700,671.000 375.500,671.000 ZM376.000,89.000 C218.047,89.000 90.000,217.047 90.000,375.000 C90.000,532.953 218.047,661.000 376.000,661.000 C533.953,661.000 662.000,532.953 662.000,375.000 C662.000,217.047 533.953,89.000 376.000,89.000 Z" class="cls-1"/>
    <g>
      <rect y="370" width="63" height="11" class="cls-2"/>
      <rect x="687" y="370" width="63" height="11" class="cls-2"/>
      <rect x="370" y="687" width="11" height="63" class="cls-2"/>
      <rect x="370" width="11" height="63" class="cls-2"/>
    </g>
  </g>
</svg>
